<?xml version="1.0" standalone="no"?><!DOCTYPE svg PUBLIC "-//W3C//DTD SVG 1.1//EN" "http://www.w3.org/Graphics/SVG/1.1/DTD/svg11.dtd"><svg t="1741688599454" class="icon" viewBox="0 0 1024 1024" version="1.1" xmlns="http://www.w3.org/2000/svg" p-id="9176" xmlns:xlink="http://www.w3.org/1999/xlink" width="200" height="200"><path d="M785.066667 119.466667a102.4 102.4 0 0 1 102.4 102.4v580.266666a102.4 102.4 0 0 1-102.4 102.4H238.933333a102.4 102.4 0 0 1-102.4-102.4V221.866667a102.4 102.4 0 0 1 102.4-102.4h546.133334z m0 51.2h-93.866667v34.133333a93.866667 93.866667 0 0 1-90.094933 93.7984L597.333333 298.666667H426.666667a93.866667 93.866667 0 0 1-93.866667-93.866667v-34.133333H238.933333a51.2 51.2 0 0 0-51.2 51.2v580.266666a51.2 51.2 0 0 0 51.2 51.2h546.133334a51.2 51.2 0 0 0 51.2-51.2V221.866667a51.2 51.2 0 0 0-51.2-51.2z m-145.066667 0h-256v34.133333a42.666667 42.666667 0 0 0 39.867733 42.581333L426.666667 247.466667h170.666666a42.666667 42.666667 0 0 0 42.666667-42.666667v-34.133333z" fill="#404040" p-id="9177"></path><path d="M392.533333 477.866667m25.6 0l187.733334 0q25.6 0 25.6 25.6l0 0q0 25.6-25.6 25.6l-187.733334 0q-25.6 0-25.6-25.6l0 0q0-25.6 25.6-25.6Z" fill="#404040" p-id="9178"></path><path d="M426.666667 631.466667m25.6 0l119.466666 0q25.6 0 25.6 25.6l0 0q0 25.6-25.6 25.6l-119.466666 0q-25.6 0-25.6-25.6l0 0q0-25.6 25.6-25.6Z" fill="#404040" p-id="9179"></path></svg>