<?xml version="1.0" standalone="no"?><!DOCTYPE svg PUBLIC "-//W3C//DTD SVG 1.1//EN" "http://www.w3.org/Graphics/SVG/1.1/DTD/svg11.dtd"><svg t="1741688497551" class="icon" viewBox="0 0 1024 1024" version="1.1" xmlns="http://www.w3.org/2000/svg" p-id="2750" xmlns:xlink="http://www.w3.org/1999/xlink" width="200" height="200"><path d="M792.91904 363.8528c-46.98624-105.24672-146.23744-188.672-266.01472-186.88512-31.1296 0.46592-59.27424 9.35424-84.68992 23.96672-11.36128-0.64-23.67488 2.3552-35.31776 6.85056-34.31424 13.25568-65.6384 26.08128-94.46912 49.80224-28.22656 23.22432-52.48512 48.9216-73.67168 78.73024-82.68288 116.34688-53.01248 265.40544 33.36704 369.62304 33.01888 39.8336 76.0832 70.81472 122.24 93.63968 34.28864 16.95744 82.03264 38.4768 120.97024 24.58624 20.60288 4.02944 35.72736-0.98304 46.70976-11.73504 88.03328-21.58592 171.29984-53.87264 222.41792-135.42912 58.14272-92.74368 51.7376-216.20224 8.45824-313.14944z" fill="#FFFFFF" p-id="2751"></path><path d="M877.2608 385.39776c-10.37312-35.37408-32.0768-61.0304-56.3968-87.72096-25.78944-28.29824-47.3856-53.74464-79.15008-76.03712-63.2064-44.34944-132.49024-66.68288-209.23392-74.86464-6.1184-0.65024-11.392 0.08704-15.86688 1.81248-0.40448-0.0256-0.78848-0.09216-1.19808-0.10752-69.09952-2.97472-132.79232 16-193.2032 48.5632-58.76224 31.67744-111.13472 70.37952-143.74912 129.83808-30.27456 55.18848-39.72096 119.19872-44.78464 181.05344-4.89472 59.76064 6.81472 118.03648 31.75936 172.29824 47.35488 103.02464 153.13408 172.7232 262.87104 191.34464 63.24224 10.7264 132.18304 8.40704 195.1488-2.944 65.65376-11.84256 122.64448-51.31264 168.50944-98.27328 45.38368-46.464 74.51136-105.76896 87.72096-169.02144 14.42816-69.10464 17.56672-147.77344-2.42688-215.94112z m-82.57024 252.20096c-20.21888 54.11328-63.49312 98.2272-110.45888 130.14016-56.61696 38.48192-125.29664 37.79584-191.0016 37.8112-55.31136 0.01536-108.83584-14.63808-156.66688-42.27072-46.04416-26.5984-82.10944-66.28352-106.368-113.33632-26.50624-51.41504-28.44672-108.10368-22.8096-164.41856 6.99392-69.8368 28.7232-143.5392 87.44448-187.20768C359.24992 250.40896 434.14528 216.65792 515.41504 220.16c5.41696 0.2304 10.17344-0.57856 14.3104-2.13504 0.91136 0.15872 1.81248 0.32768 2.75456 0.43008 32.17408 3.4304 65.23904 11.60704 95.90272 21.79072 33.6128 11.16672 61.57312 31.81568 89.89184 52.38272 25.19552 18.29888 42.34752 45.41952 63.21152 68.07552 23.40352 25.42592 32.3072 55.26016 35.75296 89.26208 6.30784 62.1312-0.67072 129.09056-22.54848 187.63264z" fill="#CCFF00" p-id="2752"></path><path d="M401.14688 153.38496C289.7664 193.6128 187.35616 268.1856 146.02752 382.85312c-40.6016 112.62976-29.64992 243.44576 33.8944 345.12384 69.10464 110.58176 206.53568 156.288 330.98752 158.6944 116.52096 2.24768 236.42624-45.40928 312.35072-135.31648 48.896-57.90208 64.82432-132.2496 70.41024-206.01856 5.59104-73.88672 0.97792-160.64-39.22944-225.27488-42.5472-68.38272-115.42016-122.54208-189.36832-151.95136-83.7376-33.29024-176.768-31.488-263.92576-14.72512-9.71776 1.8688-5.59104 16.67072 4.08576 14.81216 127.58528-24.54528 256.69632-8.17152 359.2704 76.3648 44.6208 36.77184 83.55328 81.60256 100.23424 137.63584 16.22528 54.49728 17.32096 113.664 13.06112 169.94816-4.0448 53.45792-15.13472 108.09344-42.01472 154.97728-32.06144 55.91552-86.05696 96.6912-142.99648 124.71808-124.61056 61.33248-278.30272 49.80736-397.94688-17.08032C166.144 742.8096 121.41056 590.96064 144.1792 452.02944c10.63424-64.88064 36.80768-122.16832 81.59232-170.30656 49.30048-52.99712 111.86176-89.10336 179.46624-113.52576 9.23648-3.33824 5.248-18.18624-4.09088-14.81216z" fill="#666666" p-id="2753"></path><path d="M420.77696 219.04384C362.25024 240.28672 310.35904 271.30368 267.18208 316.4672c-40.99072 42.88-61.68576 96.68608-70.4512 154.74176-18.65728 123.5456 31.00672 245.76 142.57664 306.14528 107.19232 58.01472 243.35872 55.16288 348.88192-4.46976 47.78496-27.00288 89.26208-68.34176 111.19616-119.04512 19.72224-45.568 24.92416-98.06336 25.40544-147.22048 0.41472-43.2896-4.32128-90.56256-22.3488-130.42176-18.8416-41.63584-55.07584-75.96544-90.76224-103.42912-83.44576-64.22016-190.54592-72.89344-290.90304-53.72416-9.72288 1.85856-5.59104 16.66048 4.08576 14.81216 63.66208-12.16 128.20992-13.19936 190.592 6.02624 59.9808 18.48832 109.97248 58.20416 149.63712 105.9072 37.14048 44.672 44.06272 104.6016 44.33408 160.83968 0.256 54.4256-7.5264 112.91648-34.04288 161.1776-66.72384 121.4464-229.71392 154.84928-354.56 124.83072-72.94976-17.54112-138.15808-59.96544-176.03584-125.22496-34.98496-60.28288-42.35776-131.76832-32.1024-199.69024 17.68448-117.10976 104.6016-194.816 212.17792-233.86624 9.23136-3.34848 5.248-18.19648-4.08576-14.81216z" fill="#666666" p-id="2754"></path><path d="M506.88 243.0208c-30.72 0-30.72 51.2 0 51.2 35.84 0 35.84-51.2 0-51.2zM512 729.59488c-30.72 0-30.72 51.2 0 51.2 35.84 0 35.84-51.2 0-51.2zM250.88 473.01632c-30.72 0-30.72 51.2 0 51.2 35.84 0.00512 35.84-51.2 0-51.2zM768 477.63968c-35.84 0-35.84 51.2 0 51.2 30.72 0 30.72-51.2 0-51.2zM487.6288 541.568c55.54688-35.4304 108.72832-74.37312 163.95264-110.28992 8.2688-5.376 0.57856-18.68288-7.75168-13.26592-55.22432 35.9168-108.41088 74.86464-163.95776 110.29504-8.31488 5.30944-0.61952 18.60608 7.7568 13.2608z" fill="#666666" p-id="2755"></path><path d="M291.16416 368.20992c81.11104 56.28416 156.9024 119.74144 235.94496 178.79552 7.94624 5.93408 15.58528-7.40352 7.75168-13.2608-79.04256-59.0592-154.82368-122.51136-235.93984-178.80064-8.16128-5.66272-15.83104 7.65952-7.7568 13.26592z" fill="#666666" p-id="2756"></path></svg>