<?xml version="1.0" standalone="no"?><!DOCTYPE svg PUBLIC "-//W3C//DTD SVG 1.1//EN" "http://www.w3.org/Graphics/SVG/1.1/DTD/svg11.dtd"><svg t="1741688519026" class="icon" viewBox="0 0 1024 1024" version="1.1" xmlns="http://www.w3.org/2000/svg" p-id="4003" xmlns:xlink="http://www.w3.org/1999/xlink" width="200" height="200"><path d="M824.888889 0h-625.777778a113.777778 113.777778 0 0 0-113.777778 113.777778v796.444444a113.777778 113.777778 0 0 0 113.777778 113.777778h625.777778a113.777778 113.777778 0 0 0 113.777778-113.777778V113.777778a113.777778 113.777778 0 0 0-113.777778-113.777778zM392.533333 863.573333a11.377778 11.377778 0 0 1-11.377777 11.377778H242.346667a11.377778 11.377778 0 0 1-11.377778-11.377778v-80.782222a11.377778 11.377778 0 0 1 11.377778-11.377778H381.155556a11.377778 11.377778 0 0 1 11.377777 11.377778z m0-146.204444a11.377778 11.377778 0 0 1-11.377777 11.377778H242.346667a11.377778 11.377778 0 0 1-11.377778-11.377778v-80.782222a11.377778 11.377778 0 0 1 11.377778-11.377778H381.155556a11.377778 11.377778 0 0 1 11.377777 11.377778z m0-145.635556a11.377778 11.377778 0 0 1-11.377777 11.377778H242.346667a11.377778 11.377778 0 0 1-11.377778-11.377778V490.951111a11.377778 11.377778 0 0 1 11.377778-11.377778H381.155556a11.377778 11.377778 0 0 1 11.377777 11.377778z m204.8 291.84a11.377778 11.377778 0 0 1-11.377777 11.377778H447.146667a10.808889 10.808889 0 0 1-11.377778-11.377778v-80.782222a10.808889 10.808889 0 0 1 11.377778-11.377778h138.808889a11.377778 11.377778 0 0 1 11.377777 11.377778z m0-146.204444a11.377778 11.377778 0 0 1-11.377777 11.377778H447.146667a10.808889 10.808889 0 0 1-11.377778-11.377778v-80.782222a10.808889 10.808889 0 0 1 11.377778-11.377778h138.808889a11.377778 11.377778 0 0 1 11.377777 11.377778z m0-145.635556a11.377778 11.377778 0 0 1-11.377777 11.377778H447.146667a10.808889 10.808889 0 0 1-11.377778-11.377778V490.951111a10.808889 10.808889 0 0 1 11.377778-11.377778h138.808889a11.377778 11.377778 0 0 1 11.377777 11.377778z m204.8 291.84a11.377778 11.377778 0 0 1-11.377777 11.377778h-139.377778a11.377778 11.377778 0 0 1-11.377778-11.377778v-80.782222a11.377778 11.377778 0 0 1 11.377778-11.377778h139.377778a11.377778 11.377778 0 0 1 11.377777 11.377778z m0-146.204444a11.377778 11.377778 0 0 1-11.377777 11.377778h-139.377778a11.377778 11.377778 0 0 1-11.377778-11.377778v-80.782222a11.377778 11.377778 0 0 1 11.377778-11.377778h139.377778a11.377778 11.377778 0 0 1 11.377777 11.377778z m0-145.635556a11.377778 11.377778 0 0 1-11.377777 11.377778h-139.377778a11.377778 11.377778 0 0 1-11.377778-11.377778V490.951111a11.377778 11.377778 0 0 1 11.377778-11.377778h139.377778a11.377778 11.377778 0 0 1 11.377777 11.377778z m0-244.053333a56.888889 56.888889 0 0 1-56.888889 56.888889H278.755556a56.888889 56.888889 0 0 1-56.888889-56.888889v-113.777778a56.888889 56.888889 0 0 1 56.888889-56.888889h466.488888a56.888889 56.888889 0 0 1 56.888889 56.888889z" fill="#94ABC0" p-id="4004"></path></svg>